<?xml version="1.0" encoding="UTF-8" standalone="no"?>
<!-- Created with Inkscape (http://www.inkscape.org/) -->

<svg
   xmlns:dc="http://purl.org/dc/elements/1.1/"
   xmlns:cc="http://creativecommons.org/ns#"
   xmlns:rdf="http://www.w3.org/1999/02/22-rdf-syntax-ns#"
   xmlns:svg="http://www.w3.org/2000/svg"
   xmlns="http://www.w3.org/2000/svg"
   xmlns:sodipodi="http://sodipodi.sourceforge.net/DTD/sodipodi-0.dtd"
   xmlns:inkscape="http://www.inkscape.org/namespaces/inkscape"
   width="3.8065281mm"
   height="4.1382241mm"
   viewBox="0 0 3.8065281 4.1382241"
   version="1.1"
   id="svg821"
   inkscape:version="0.92.4 (5da689c313, 2019-01-14)"
   sodipodi:docname="fertilize2.svg">
  <defs
     id="defs815" />
  <sodipodi:namedview
     id="base"
     pagecolor="#ffffff"
     bordercolor="#666666"
     borderopacity="1.0"
     inkscape:pageopacity="0.0"
     inkscape:pageshadow="2"
     inkscape:zoom="2.8"
     inkscape:cx="26.384344"
     inkscape:cy="-40.35684"
     inkscape:document-units="mm"
     inkscape:current-layer="layer1"
     showgrid="false"
     inkscape:window-width="1920"
     inkscape:window-height="1017"
     inkscape:window-x="-8"
     inkscape:window-y="-8"
     inkscape:window-maximized="1"
     fit-margin-top="0"
     fit-margin-left="0"
     fit-margin-right="0"
     fit-margin-bottom="0" />
  <metadata
     id="metadata818">
    <rdf:RDF>
      <cc:Work
         rdf:about="">
        <dc:format>image/svg+xml</dc:format>
        <dc:type
           rdf:resource="http://purl.org/dc/dcmitype/StillImage" />
        <dc:title></dc:title>
      </cc:Work>
    </rdf:RDF>
  </metadata>
  <g
     inkscape:label="Layer 1"
     inkscape:groupmode="layer"
     id="layer1"
     transform="translate(-132.7997,-78.86726)">
    <path
       inkscape:connector-curvature="0"
       style="fill:#98785d;fill-opacity:1;stroke-width:0.26458332"
       d="m 135.46193,81.139239 c -0.39158,-0.41539 -0.56356,-0.87577 -1.16152,-1.12183 a 2.7384375,2.7384375 0 0 0 -0.48948,1.05833 5.6171042,5.6171042 0 0 0 1.651,0.0635 z"
       id="path446" />
    <path
       inkscape:connector-curvature="0"
       style="fill:#98785d;fill-opacity:1;stroke-width:0.26458332"
       d="m 136.12046,80.443826 a 3.8840833,3.8840833 0 0 1 -1.22766,-0.30956 0.26458333,0.26458333 0 0 1 -0.0318,-0.48154 5.4848125,5.4848125 0 0 1 0.67468,-0.29105 c 0.19844,0.37042 0.37571,0.69586 0.58473,1.08215 z"
       id="path448" />
    <path
       inkscape:connector-curvature="0"
       style="fill:#4e3e30;fill-opacity:1;stroke-width:0.26458332"
       d="m 134.17536,78.871918 c -0.41275,-0.0423 -0.61119,0.20902 -0.8255,0.52916 a 1.4975417,1.4975417 0 0 0 1.03187,0.45244 c -0.0741,-0.35454 -0.14023,-0.65881 -0.20637,-0.9816 z"
       id="path302" />
    <path
       inkscape:connector-curvature="0"
       style="fill:#98785d;fill-opacity:1;stroke-width:0.26458332"
       d="m 134.43355,81.354484 c 0.41539,0.39158 0.87577,0.56356 1.12183,1.16152 a 2.7384375,2.7384375 0 0 1 -1.05833,0.48948 5.6171042,5.6171042 0 0 1 -0.0635,-1.651 z"
       id="path446-4" />
    <path
       inkscape:connector-curvature="0"
       style="fill:#4e3e30;fill-opacity:1;stroke-width:0.26458332"
       d="m 134.20018,82.686863 a 3.8840833,3.8840833 0 0 0 -0.30956,-1.22766 0.26458333,0.26458333 0 0 0 -0.48154,-0.0318 5.4848125,5.4848125 0 0 0 -0.29105,0.67468 c 0.37042,0.19844 0.69586,0.37571 1.08215,0.58473 z"
       id="path448-5" />
    <path
       inkscape:connector-curvature="0"
       style="fill:#98785d;fill-opacity:1;stroke-width:0.26458332"
       d="m 132.80436,80.348855 c -0.0423,0.41275 0.20902,0.61119 0.52916,0.8255 a 1.4975417,1.4975417 0 0 0 0.45244,-1.03187 c -0.35454,0.0741 -0.65881,0.14023 -0.9816,0.20637 z"
       id="path302-2" />
    <path
       inkscape:connector-curvature="0"
       style="fill:#4e3e30;fill-opacity:1;stroke-width:0.26458332"
       d="m 135.78073,81.918892 c 0.41275,0.0423 0.61119,-0.20902 0.8255,-0.52916 a 1.4975417,1.4975417 0 0 0 -1.03187,-0.45244 c 0.0741,0.35454 0.14023,0.65881 0.20637,0.9816 z"
       id="path302-8" />
  </g>
</svg>
