<?xml version="1.0" encoding="UTF-8" standalone="no"?>
<!-- Created with Inkscape (http://www.inkscape.org/) -->

<svg
   xmlns:dc="http://purl.org/dc/elements/1.1/"
   xmlns:cc="http://creativecommons.org/ns#"
   xmlns:rdf="http://www.w3.org/1999/02/22-rdf-syntax-ns#"
   xmlns:svg="http://www.w3.org/2000/svg"
   xmlns="http://www.w3.org/2000/svg"
   xmlns:sodipodi="http://sodipodi.sourceforge.net/DTD/sodipodi-0.dtd"
   xmlns:inkscape="http://www.inkscape.org/namespaces/inkscape"
   width="18.747181mm"
   height="29.32379mm"
   viewBox="0 0 18.747181 29.32379"
   version="1.1"
   id="svg1788"
   inkscape:version="0.92.4 (5da689c313, 2019-01-14)"
   sodipodi:docname="logo2.svg">
  <defs
     id="defs1782" />
  <sodipodi:namedview
     id="base"
     pagecolor="#ffffff"
     bordercolor="#666666"
     borderopacity="1.0"
     inkscape:pageopacity="0.0"
     inkscape:pageshadow="2"
     inkscape:zoom="5.6"
     inkscape:cx="56.333676"
     inkscape:cy="51.417827"
     inkscape:document-units="mm"
     inkscape:current-layer="layer1"
     showgrid="false"
     fit-margin-top="0"
     fit-margin-left="0"
     fit-margin-right="0"
     fit-margin-bottom="0"
     inkscape:window-width="1920"
     inkscape:window-height="1017"
     inkscape:window-x="-8"
     inkscape:window-y="-8"
     inkscape:window-maximized="1" />
  <metadata
     id="metadata1785">
    <rdf:RDF>
      <cc:Work
         rdf:about="">
        <dc:format>image/svg+xml</dc:format>
        <dc:type
           rdf:resource="http://purl.org/dc/dcmitype/StillImage" />
        <dc:title></dc:title>
      </cc:Work>
    </rdf:RDF>
  </metadata>
  <g
     inkscape:label="Layer 1"
     inkscape:groupmode="layer"
     id="layer1"
     transform="translate(-71.565064,-90.828364)">
    <path
       inkscape:connector-curvature="0"
       style="fill:#ffdacc;stroke-width:0.26458332"
       d="m 74.556308,106.92825 a 1.3890625,1.3890625 0 0 0 -0.201083,1.02923 c 0.0344,0.17992 0.08731,0.35983 0.134937,0.52917 0.150813,0.55297 0.171979,0.57414 0.732896,0.65616 a 1.5636875,1.5636875 0 0 0 0.22225,0 29.567187,29.567187 0 0 1 3.84175,0.13229 c 0.817563,0.10319 1.645708,0.12436 2.468563,0.18257 0.22225,0 0.4445,0.0159 0.664104,0.0291 0.394229,0.0238 0.79375,0.0265 1.180041,0.0847 a 9.2366042,9.2366042 0 0 0 2.577042,-0.0318 7.159625,7.159625 0 0 0 0.851959,-0.23548 0.39422917,0.39422917 0 0 0 0.293687,-0.381 c 0.02117,-0.17198 0.02646,-0.34396 0.05292,-0.51594 a 5.0270833,5.0270833 0 0 0 -0.0979,-1.6166 0.19579167,0.19579167 0 0 0 -0.195792,-0.18786 c -0.404812,0 -0.812271,-0.0185 -1.214437,0 -0.296334,0.0185 -0.58473,0.10583 -0.878417,0.12965 -0.724958,0.0556 -1.449917,0.0926 -2.174875,0.14023 -0.296333,0.0185 -0.590021,0.0397 -0.886354,0.0556 a 8.3714167,8.3714167 0 0 1 -0.994833,0.045 c -1.370542,-0.0873 -2.735792,-0.0265 -4.103688,0.0212 a 5.5271458,5.5271458 0 0 1 -0.592667,0 c -0.367771,-0.0265 -0.732895,-0.0608 -1.100666,-0.0926 -0.0344,0 -0.07144,0 -0.108479,0 z"
       id="path366" />
    <path
       inkscape:connector-curvature="0"
       style="fill:#ffdacc;stroke-width:0.26458332"
       d="m 76.019454,118.33444 a 1.5451667,1.5451667 0 0 0 -0.121708,0.70643 0.66675,0.66675 0 0 0 0.555625,0.64294 4.5667083,4.5667083 0 0 0 0.611187,0.14817 q 1.5875,0.15875 3.204104,0.28839 a 30.633458,30.633458 0 0 0 4.064,-0.0847 12.435417,12.435417 0 0 0 1.277938,-0.19843 0.48154167,0.48154167 0 0 0 0.391583,-0.30427 2.7225625,2.7225625 0 0 0 0.248708,-1.14565 1.2805833,1.2805833 0 0 0 -0.05292,-0.23548 c -0.177271,0.12965 -0.320146,0.25136 -0.47625,0.34396 a 5.1805417,5.1805417 0 0 1 -2.645833,0.71702 c -1.119188,0 -2.241021,-0.0556 -3.362855,-0.10054 a 12.252854,12.252854 0 0 1 -1.391704,-0.127 c -0.497417,-0.0794 -0.986896,-0.21696 -1.479021,-0.32544 a 1.1403542,1.1403542 0 0 1 -0.714375,-0.32543 c 0,0 -0.02646,0 -0.108479,0 z"
       id="path368" />
    <path
       inkscape:connector-curvature="0"
       style="fill:#ffdacc;stroke-width:0.26458332"
       d="m 84.75335,116.32096 c 0.481541,-0.508 0.926041,-0.96838 1.362604,-1.43404 a 0.52916667,0.52916667 0 0 0 0.04233,-0.80698 c -0.510646,-0.66146 -1.021291,-1.32292 -1.534583,-1.98438 a 2.809875,2.809875 0 0 0 -0.232833,-0.24077 1.6589375,1.6589375 0 0 0 -0.216959,0.18256 c -0.396875,0.48419 -0.79375,0.97632 -1.187979,1.46315 a 0.30427083,0.30427083 0 0 0 0,0.42862 c 0.489479,0.67998 0.971021,1.36525 1.457854,2.04788 0.07937,0.10848 0.185209,0.20108 0.309563,0.34396 z"
       id="path370" />
    <path
       inkscape:connector-curvature="0"
       style="fill:#ffdacc;stroke-width:0.26458332"
       d="m 84.523162,116.53527 c -0.328083,-0.60325 -1.611312,-2.36008 -1.838854,-2.52677 a 0.5476875,0.5476875 0 0 0 -0.111125,0.082 c -0.465667,0.57679 -0.926041,1.15623 -1.391708,1.73037 a 0.26458333,0.26458333 0 0 0 0.01852,0.39159 c 0.481541,0.56356 0.957791,1.12977 1.439333,1.69333 a 1.7118542,1.7118542 0 0 0 0.216958,0.17463 z"
       id="path372" />
    <path
       inkscape:connector-curvature="0"
       style="fill:#ffdacc;stroke-width:0.26458332"
       d="m 80.885141,111.86802 c -0.497416,0.52917 -0.963083,1.02394 -1.420812,1.524 -0.227542,0.24606 -0.224896,0.26458 -0.02381,0.52917 q 0.619125,0.82814 1.25148,1.65364 a 1.952625,1.952625 0 0 0 0.20902,0.20373 c 0.505355,-0.64558 0.992188,-1.26471 1.481667,-1.88383 a 0.26458333,0.26458333 0 0 0 -0.04233,-0.39158 c -0.336027,-0.36248 -0.66411,-0.73025 -0.992194,-1.10067 -0.145521,-0.15346 -0.28575,-0.32808 -0.463021,-0.53446 z"
       id="path374" />
    <path
       inkscape:connector-curvature="0"
       style="fill:#ffdacc;stroke-width:0.26458332"
       d="m 79.194454,109.89687 a 11.90625,11.90625 0 0 0 -1.651,1.73567 l 1.513417,1.72244 c 0.05292,-0.0159 0.08202,-0.0159 0.0979,-0.0318 l 1.447271,-1.53194 c 0.124355,-0.12964 0.06879,-0.24342 -0.03175,-0.35719 -0.341312,-0.3757 -0.677333,-0.75141 -1.013354,-1.12977 z"
       id="path376" />
    <path
       inkscape:connector-curvature="0"
       style="fill:#ffdacc;stroke-width:0.26458332"
       d="m 82.628746,109.99212 c -0.127,0.12171 -0.219605,0.20109 -0.29898,0.29105 -0.36777,0.41275 -0.727604,0.83343 -1.100666,1.24089 a 0.26458333,0.26458333 0 0 0 0.01588,0.38894 c 0.452437,0.50535 0.904875,1.00542 1.359958,1.50548 0.01323,0.0132 0.04498,0 0.09525,0.0212 0.510646,-0.59002 0.992188,-1.21973 1.494896,-1.87854 z"
       id="path378" />
    <path
       inkscape:connector-curvature="0"
       style="fill:#ffdacc;stroke-width:0.26458332"
       d="m 79.459037,117.23112 c 0.378354,-0.37306 0.746125,-0.73289 1.108604,-1.09537 0.124355,-0.127 0.05292,-0.24606 -0.0344,-0.36248 -0.447146,-0.59002 -0.891646,-1.18269 -1.338792,-1.77006 a 1.2250208,1.2250208 0 0 0 -0.171979,-0.14023 c -0.375709,0.3466 -0.740834,0.67733 -1.098021,1.016 -0.240771,0.23019 -0.238125,0.26458 -0.02381,0.51329 l 1.418167,1.70921 a 1.3731875,1.3731875 0 0 0 0.140229,0.12964 z"
       id="path380" />
    <path
       inkscape:connector-curvature="0"
       style="fill:#ffdacc;stroke-width:0.26458332"
       d="m 77.51435,115.342 a 2.5849792,2.5849792 0 0 0 -0.219604,0.16933 c -0.264584,0.26459 -0.529167,0.52917 -0.79375,0.78052 -0.264584,0.25136 -0.240771,0.26459 0,0.5133 0.502708,0.52916 1.016,1.03981 1.524,1.56104 l 0.08202,0.0767 a 0.19579167,0.19579167 0 0 0 0.296334,0 11.509375,11.509375 0 0 0 0.870479,-0.9525 20.346458,20.346458 0 0 0 -1.759479,-2.14842 z"
       id="path382" />
    <path
       inkscape:connector-curvature="0"
       style="fill:#ffdacc;stroke-width:0.26458332"
       d="m 78.871662,113.64073 a 0.68791667,0.68791667 0 0 0 -0.05292,-0.15875 c -0.441851,-0.51065 -0.878413,-1.02394 -1.322913,-1.52929 -0.124354,-0.13759 -0.198438,-0.127 -0.341313,0.0238 -0.330729,0.3466 -0.650875,0.70379 -0.978958,1.05833 a 0.26458333,0.26458333 0 0 0 0,0.38894 c 0.388938,0.44185 0.777875,0.88635 1.169458,1.32292 a 1.3864167,1.3864167 0 0 0 0.22225,0.16139 z"
       id="path384" />
    <path
       inkscape:connector-curvature="0"
       style="fill:#ffdacc;stroke-width:0.26458332"
       d="m 82.620808,118.27887 -1.751542,-2.0611 a 14.649979,14.649979 0 0 0 -1.219729,1.32292 c 0.314854,0.39952 0.611188,0.79375 0.931334,1.16681 a 0.56885417,0.56885417 0 0 0 0.354541,0.16933 8.9535,8.9535 0 0 0 0.997479,0.0212 0.40745833,0.40745833 0 0 0 0.264584,-0.11906 c 0.129646,-0.14552 0.251354,-0.30162 0.423333,-0.50006 z"
       id="path386" />
    <path
       inkscape:connector-curvature="0"
       style="fill:#ffdacc;stroke-width:0.26458332"
       d="m 77.302683,111.36002 c 0.529167,-0.37835 1.558396,-1.48431 1.690688,-1.79652 -0.373063,-0.0476 -0.735542,-0.10848 -1.100667,-0.13229 a 9.6070208,9.6070208 0 0 0 -1.058333,0 c -0.357188,0 -0.722313,-0.0794 -1.108605,0.0423 0.381,0.77787 1.084792,1.23031 1.576917,1.88648 z"
       id="path388" />
    <path
       inkscape:connector-curvature="0"
       style="fill:#ffdacc;stroke-width:0.26458332"
       d="m 85.652933,110.50277 a 8.5169375,8.5169375 0 0 0 -0.873125,0.87577 c -0.203729,0.23548 -0.206375,0.26458 -0.02117,0.50271 q 0.703792,0.89958 1.418167,1.79652 a 0.73025,0.73025 0 0 0 0.177271,0.11906 c 0.07673,-0.6985 0.150812,-1.35466 0.216958,-2.01348 a 0.32014583,0.32014583 0 0 0 -0.04233,-0.21166 5.2916667,5.2916667 0 0 0 -0.875771,-1.06892 z"
       id="path390" />
    <path
       inkscape:connector-curvature="0"
       style="fill:#ffdacc;stroke-width:0.26458332"
       d="m 84.700433,116.71783 -1.709208,1.61661 c 0.0635,0.10054 0.100541,0.16404 0.140229,0.22225 a 0.66145833,0.66145833 0 0 0 0.79375,0.30427 6.0854167,6.0854167 0 0 0 1.468437,-0.48684 c 0.134938,-0.0741 0.264584,-0.16668 0.418042,-0.26458 a 14.054667,14.054667 0 0 0 -1.11125,-1.39171 z"
       id="path392" />
    <path
       inkscape:connector-curvature="0"
       style="fill:#ffdacc;stroke-width:0.26458332"
       d="m 82.350933,109.81221 -0.751417,-0.0662 c -0.232833,-0.0185 -0.465666,-0.0423 -0.701145,-0.0556 -0.23548,-0.0132 -0.492125,-0.0397 -0.735542,-0.0317 -0.243417,0.008 -0.47625,-0.11906 -0.748771,0.0317 0.08996,0.127 0.15875,0.24342 0.243417,0.34131 0.338666,0.39158 0.682625,0.77788 1.023937,1.16681 0.22225,0.26459 0.264584,0.26459 0.486834,0.0238 0.39952,-0.43391 0.79375,-0.88635 1.166812,-1.32291 0.0079,-0.0185 0.0053,-0.0318 0.01588,-0.0873 z"
       id="path394" />
    <path
       inkscape:connector-curvature="0"
       style="fill:#ffdacc;stroke-width:0.26458332"
       d="m 75.336829,109.5344 a 1.0583333,1.0583333 0 0 0 -0.03704,0.29897 c 0.1905,1.02394 0.388938,2.04259 0.595313,3.11944 0.124354,-0.11377 0.206375,-0.18521 0.280458,-0.26458 l 0.73025,-0.79375 c 0.264583,-0.29104 0.264583,-0.3175 0.01588,-0.60854 a 18.25625,18.25625 0 0 1 -1.489611,-1.73567 c 0,0 -0.02381,0.003 -0.09525,-0.0159 z"
       id="path396" />
    <path
       inkscape:connector-curvature="0"
       style="fill:#ffdacc;stroke-width:0.26458332"
       d="m 84.401454,111.42087 c 0.330729,-0.39158 0.693208,-0.70114 0.98425,-1.08214 0.103187,-0.13758 -0.02381,-0.35719 -0.203729,-0.39423 a 1.4419792,1.4419792 0 0 0 -0.185209,0 l -1.471083,-0.082 -0.605896,-0.0397 -0.03704,0.0741 z"
       id="path398" />
    <path
       inkscape:connector-curvature="0"
       style="fill:#ffdacc;stroke-width:0.26458332"
       d="m 85.898996,117.77087 0.111125,-0.0318 a 2.0399375,2.0399375 0 0 0 0.07408,-0.30427 c 0.06615,-0.68791 0.124354,-1.37583 0.182562,-2.06375 a 0.8175625,0.8175625 0 0 0 -0.03969,-0.19843 c -0.465667,0.47095 -0.896938,0.90223 -1.322917,1.38377 0.346604,0.42068 0.677334,0.81756 0.994834,1.21443 z"
       id="path400" />
    <path
       inkscape:connector-curvature="0"
       style="fill:#ffdacc;stroke-width:0.26458332"
       d="m 75.982412,113.63015 c -0.04233,0.47625 0.193146,2.23043 0.322792,2.48179 a 6.0854167,6.0854167 0 0 0 0.820208,-0.79375 c 0.187854,-0.18786 0.185209,-0.23019 0,-0.42069 l -0.838729,-0.93398 z"
       id="path402" />
    <path
       inkscape:connector-curvature="0"
       style="fill:#ffdacc;stroke-width:0.26458332"
       d="m 79.474912,117.7259 a 4.365625,4.365625 0 0 0 -0.859896,0.89958 3.8682083,3.8682083 0 0 0 1.690688,0.15875 z"
       id="path404" />
    <path
       inkscape:connector-curvature="0"
       style="fill:#ffdacc;stroke-width:0.26458332"
       d="m 77.83185,118.57256 a 9.4271042,9.4271042 0 0 0 -1.449917,-1.49225 c 0.04762,0.33867 0.08996,0.59002 0.119063,0.84402 a 0.4683125,0.4683125 0 0 0 0.404812,0.45509 c 0.28575,0.0556 0.5715,0.11906 0.926042,0.19314 z"
       id="path406" />
    <path
       inkscape:connector-curvature="0"
       style="fill:#ffdacc;stroke-width:0.26458332"
       d="m 86.737725,109.79898 a 0.85195833,0.85195833 0 0 0 -0.79375,0.39158 0.26458333,0.26458333 0 0 0 0.0344,0.23019 c 0.134937,0.1905 0.283104,0.37042 0.436562,0.54769 a 1.0371667,1.0371667 0 0 0 0.219604,0.14287 c 0.03175,-0.4736 0.06879,-0.89429 0.103188,-1.31233 z"
       id="path408" />
    <path
       inkscape:connector-curvature="0"
       style="fill:#ffdacc;stroke-width:0.26458332"
       d="m 82.983287,118.91387 0.05027,-0.0952 c -0.08731,-0.0714 -0.171978,-0.19843 -0.264582,-0.20108 -0.145521,0 -0.264584,0.10848 -0.264584,0.29633 z"
       id="path410" />
    <path
       inkscape:connector-curvature="0"
       style="fill:#ffdacc;stroke-width:0.26458332"
       d="m 85.684683,109.98154 0.05556,-0.037 c 0,-0.0159 -0.02646,-0.0476 -0.03704,-0.045 -0.01058,0.003 -0.03704,0.0212 -0.05556,0.0344 z"
       id="path412" />
    <path
       inkscape:connector-curvature="0"
       style="fill:#8ab49a;stroke-width:0.26458332"
       d="m 85.965141,100.87194 0.1905,-0.39159 a 36.486042,36.486042 0 0 1 2.801938,-5.056179 c 0.01588,-0.02381 -0.03704,-0.0635 -0.03704,-0.06615 a 0.2143125,0.2143125 0 0 0 -0.119062,-0.03969 0.0714375,0.0714375 0 0 0 -0.04233,0 13.594292,13.594292 0 0 0 -3.291416,3.291416 28.088167,28.088167 0 0 1 -1.354667,4.548183 c 0.481542,-0.55562 0.933979,-1.12977 1.383771,-1.70127 q 0.230187,-0.27781 0.468312,-0.58473 z"
       id="path414" />
    <path
       inkscape:connector-curvature="0"
       style="fill:#b8e0b9;stroke-width:0.26458332"
       d="m 77.572558,103.96492 c -1.611312,-1.73567 -2.862792,-3.70417 -4.09575,-5.667374 -0.597958,-0.944562 -1.161521,-1.836208 -1.764771,-2.701396 a 0.63764583,0.63764583 0 0 0 -0.09525,-0.113771 2.2251458,2.2251458 0 0 0 0.01588,1.021292 v 0 c 1.7145,4.587869 3.749146,7.868699 6.125104,9.879539 h 1.423459 c 0,-0.0662 0,-0.13494 0,-0.20373 a 14.070542,14.070542 0 0 1 -1.608667,-2.21456 z"
       id="path416" />
    <path
       inkscape:connector-curvature="0"
       style="fill:#abd1ac;stroke-width:0.26458332"
       d="m 88.894079,98.13615 a 18.182167,18.182167 0 0 0 -2.688167,2.8575 l -0.391583,0.49741 c -0.0291,0.0397 -0.06085,0.0794 -0.0926,0.11642 l -0.3175,0.40746 c -0.529167,0.65352 -1.058333,1.30439 -1.624542,1.91823 a 16.708437,16.708437 0 0 1 -1.259416,2.2225 c 0.06614,-0.0265 0.132291,-0.0529 0.195791,-0.0847 a 3.175,3.175 0 0 0 0.338667,-0.17992 4.111625,4.111625 0 0 0 0.463021,-0.34396 10.50925,10.50925 0 0 0 1.264708,-1.39171 c 0.193146,-0.24077 0.391583,-0.48418 0.597958,-0.72231 a 10.167937,10.167937 0 0 1 2.17223,-2.11667 30.1625,30.1625 0 0 0 1.452562,-2.799283 c 0.153458,-0.359833 0.08731,-0.439208 0.08467,-0.439208 a 0.29897917,0.29897917 0 0 0 -0.195792,0.05821 z"
       id="path418" />
    <path
       inkscape:connector-curvature="0"
       style="fill:#8ab49a;stroke-width:0.26458332"
       d="m 90.079412,100.69467 c 0.224896,-0.15346 0.232834,-0.21696 0.232834,-0.21961 0,-0.003 -0.04763,0 -0.08467,0 h -0.01587 a 5.445125,5.445125 0 0 0 -2.428877,0.98954 c -0.08996,0.0609 -0.179917,0.127 -0.264583,0.1958 -0.08467,0.0688 -0.211667,0.16404 -0.314855,0.26458 a 10.583333,10.583333 0 0 0 -1.5875,1.65894 c -0.20902,0.24077 -0.404812,0.48418 -0.597958,0.72231 -0.635,0.79375 -1.251479,1.54517 -2.098146,1.96321 a 3.0718125,3.0718125 0 0 1 -0.304271,0.127 h 2.844271 a 16.933333,16.933333 0 0 0 1.127125,-1.66423 c 0.846667,-1.40759 1.844146,-2.98979 3.4925,-4.03754 z"
       id="path420" />
    <path
       inkscape:connector-curvature="0"
       style="fill:#abd1ac;stroke-width:0.26458332"
       d="m 83.464829,91.762338 a 0.1349375,0.1349375 0 0 0 -0.145521,0.0926 c -0.325437,1.217083 -0.706437,2.333625 -1.103312,3.402542 a 22.418146,22.418146 0 0 1 0.211666,4.656662 24.553333,24.553333 0 0 1 1.246188,-2.550579 32.832146,32.832146 0 0 0 -0.09525,-5.487458 0.1190625,0.1190625 0 0 0 -0.113771,-0.113771 z"
       id="path422" />
    <path
       inkscape:connector-curvature="0"
       style="fill:#8ab49a;stroke-width:0.26458332"
       d="m 81.964641,95.519421 c -0.01323,-0.0926 -0.02381,-0.187854 -0.03704,-0.283104 -0.185208,-1.322917 -0.460375,-2.725208 -0.79375,-4.341813 0,-0.03969 -0.03175,-0.06614 -0.06085,-0.06614 a 0.079375,0.079375 0 0 0 -0.06615,0.07144 l -0.08996,0.447146 a 59.928125,59.928125 0 0 0 -0.931333,5.995458 c 0.211667,0.510646 0.399521,1.018646 0.5715,1.524 0.02117,0.06879 0.04762,0.137584 0.06879,0.203729 0.02117,0.06615 0.04763,0.145517 0.06879,0.216957 a 26.421292,26.421292 0 0 1 0.79375,3.222626 c 0.17198,-0.57415 0.359834,-1.13771 0.568855,-1.69334 a 21.100521,21.100521 0 0 0 -0.06085,-5.000618 c -0.0053,-0.103187 -0.01852,-0.201083 -0.03175,-0.296333 z"
       id="path424" />
    <path
       inkscape:connector-curvature="0"
       style="fill:#b8e0b9;stroke-width:0.26458332"
       d="m 80.477683,99.490812 c -0.02381,-0.0714 -0.04498,-0.14287 -0.06879,-0.214308 q -0.211668,-0.658812 -0.465668,-1.322916 l -0.119063,-0.296334 -0.116416,-0.293687 a 31.249937,31.249937 0 0 0 -2.38125,-4.521729 0.0635,0.0635 0 0 0 -0.05292,-0.03175 h -0.02646 a 0.05027083,0.05027083 0 0 0 -0.04233,0.06085 v 0 c 0.214313,1.2065 0.373063,2.301875 0.529167,3.362854 0.280458,1.939396 0.529167,3.63802 1.021292,5.291658 0.09525,0.20638 0.187854,0.4154 0.28575,0.62971 l 0.375708,0.83079 c 0.0344,0.0714 0.06615,0.14288 0.100542,0.21696 0.0344,0.0741 0.07144,0.15346 0.108479,0.23019 0.264583,0.54769 0.529167,1.11125 0.838729,1.69598 0.08202,0.1614 0.169333,0.32279 0.264583,0.48419 a 0.13229167,0.13229167 0 0 1 0,-0.0317 c 0.01852,-0.0979 0.03969,-0.19315 0.06085,-0.2884 0.15875,-0.76464 0.333375,-1.49489 0.529167,-2.20662 A 26.627667,26.627667 0 0 0 80.54647,99.699882 c -0.02381,-0.0582 -0.04762,-0.13229 -0.06879,-0.20902 z"
       id="path426" />
    <path
       inkscape:connector-curvature="0"
       style="fill:#abd1ac;stroke-width:0.26458332"
       d="m 83.176433,104.53906 c 0.0635,-0.11906 0.124354,-0.23548 0.182563,-0.35189 0.05821,-0.11642 0.121708,-0.24871 0.179916,-0.37307 a 23.309792,23.309792 0 0 0 1.497542,-4.529656 c 0.03175,-0.12965 0.06085,-0.264585 0.0926,-0.391585 0.03175,-0.127 0.05292,-0.232834 0.08202,-0.351896 0.08467,-0.373063 0.171979,-0.756709 0.264583,-1.150938 0.235479,-1.058333 0.47625,-2.116666 0.79375,-3.323166 a 0.0555625,0.0555625 0 0 0 -0.03969,-0.0635 h -0.0291 a 0.06085417,0.06085417 0 0 0 -0.05027,0.02646 34.207979,34.207979 0 0 0 -2.217209,3.402542 l -0.153458,0.280458 c -0.0635,0.116417 -0.121708,0.230187 -0.182562,0.343958 a 25.069271,25.069271 0 0 0 -1.264709,2.796643 c -0.07673,0.20637 -0.148166,0.41539 -0.22225,0.62442 -0.0926,0.26458 -0.182562,0.54504 -0.264583,0.8202 -0.08202,0.27517 -0.166688,0.54769 -0.243417,0.8255 -0.0291,0.10319 -0.06085,0.20638 -0.08731,0.31221 -0.02646,0.10584 -0.05821,0.23019 -0.08731,0.34396 q -0.235479,0.92075 -0.431271,1.90765 c 0,0.0503 -0.02117,0.0979 -0.0291,0.14816 l -0.01588,0.0741 v 0.045 a 0.11641667,0.11641667 0 0 0 0,0.0265 v 0.0238 a 0.52916667,0.52916667 0 0 0 0.0291,0.0529 c 0.01323,0.0238 0.02646,0.0503 0.04233,0.0741 l 0.01588,0.0265 0.01588,0.0291 0.04762,0.0794 a 0.52916667,0.52916667 0 0 0 0.0291,0.0529 l 0.01323,0.0212 0.0291,0.0503 h 0.889 c 0.02646,-0.0344 0.05292,-0.0714 0.07673,-0.10848 a 16.785167,16.785167 0 0 0 1.037167,-1.7436 z"
       id="path428" />
    <path
       inkscape:connector-curvature="0"
       style="fill:#8ab49a;stroke-width:0.26458332"
       d="m 80.781954,106.28002 v -0.0185 l -0.02646,-0.045 -0.02381,-0.0423 -0.0635,-0.11112 -0.01587,-0.0291 c -0.119062,-0.21167 -0.235479,-0.42334 -0.346604,-0.63236 -0.264583,-0.49742 -0.508,-0.98425 -0.735542,-1.45521 -0.03704,-0.082 -0.07673,-0.16139 -0.113771,-0.24341 l -0.103187,-0.21961 -0.28575,-0.61648 -0.264583,-0.61118 c -0.100548,-0.22491 -0.20109,-0.44451 -0.301631,-0.66676 -1.105959,-2.420936 -2.211917,-4.550831 -4.876271,-6.58283 a 0.1666875,0.1666875 0 0 0 -0.161396,0.02646 c 0,0 -0.05556,0.03969 -0.03969,0.0635 v 0 a 36.491333,36.491333 0 0 1 2.627313,5.12762 34.215917,34.215917 0 0 0 1.775354,3.61421 c 0.0979,0.16404 0.198438,0.32808 0.301625,0.48948 0.103188,0.16139 0.246063,0.37041 0.375708,0.55562 0.214313,0.30163 0.4445,0.60061 0.690563,0.89429 l 0.132292,0.15346 0.14552,0.16669 q 0.129646,0.14288 0.264584,0.28575 h 1.121833 l -0.05292,-0.09 z"
       id="path430" />
  </g>
</svg>
