<?xml version="1.0" encoding="UTF-8" standalone="no"?>
<!-- Generator: Adobe Illustrator 23.0.1, SVG Export Plug-In . SVG Version: 6.00 Build 0)  -->

<svg
   xmlns:dc="http://purl.org/dc/elements/1.1/"
   xmlns:cc="http://creativecommons.org/ns#"
   xmlns:rdf="http://www.w3.org/1999/02/22-rdf-syntax-ns#"
   xmlns:svg="http://www.w3.org/2000/svg"
   xmlns="http://www.w3.org/2000/svg"
   xmlns:sodipodi="http://sodipodi.sourceforge.net/DTD/sodipodi-0.dtd"
   xmlns:inkscape="http://www.inkscape.org/namespaces/inkscape"
   version="1.1"
   id="Layer_1"
   x="0px"
   y="0px"
   width="331.51245"
   height="227.98058"
   viewBox="0 0 331.51245 227.98058"
   enable-background="new 0 0 708.66144 708.66144"
   xml:space="preserve"
   sodipodi:docname="logo.svg"
   inkscape:version="0.92.4 (5da689c313, 2019-01-14)"><metadata
   id="metadata43"><rdf:RDF><cc:Work
       rdf:about=""><dc:format>image/svg+xml</dc:format><dc:type
         rdf:resource="http://purl.org/dc/dcmitype/StillImage" /><dc:title></dc:title></cc:Work></rdf:RDF></metadata><defs
   id="defs41" /><sodipodi:namedview
   pagecolor="#ffffff"
   bordercolor="#666666"
   borderopacity="1"
   objecttolerance="10"
   gridtolerance="10"
   guidetolerance="10"
   inkscape:pageopacity="0"
   inkscape:pageshadow="2"
   inkscape:window-width="1920"
   inkscape:window-height="1017"
   id="namedview39"
   showgrid="false"
   inkscape:zoom="1.3320888"
   inkscape:cx="139.963"
   inkscape:cy="156.58975"
   inkscape:window-x="-8"
   inkscape:window-y="-8"
   inkscape:window-maximized="1"
   inkscape:current-layer="g36"
   fit-margin-top="0"
   fit-margin-left="0"
   fit-margin-right="0"
   fit-margin-bottom="0" />
<g
   id="g36"
   transform="translate(-188.67339,-398.40735)">
	<path
   d="m 437.61172,464.22369 c 0.24435,0.0917 0.48416,0.19705 0.71555,0.30325 7.57452,3.47675 14.53018,8.29663 20.44559,14.16763 -6.24026,-9.86789 -14.84961,-18.22626 -24.89777,-24.17197 -0.91776,-0.54303 -1.87119,-1.08661 -2.53098,-1.92435 -0.65979,-0.83774 -0.95786,-2.05981 -0.42123,-2.98135 0.72778,-1.24988 2.47992,-1.33551 3.91788,-1.18005 7.47238,0.80777 14.59082,4.0307 20.47784,8.70313 5.88702,4.67245 10.5755,10.75314 14.09283,17.39523 0.24396,-7.79089 0.51413,-15.64206 2.30286,-23.22876 1.78873,-7.58667 5.21976,-14.98163 10.93378,-20.28329 0.94888,-0.88043 1.99323,-1.71927 3.23648,-2.07971 1.24323,-0.36044 2.73041,-0.14203 3.5809,0.8338 1.42783,1.63824 0.39975,4.15073 -0.58209,6.08948 -7.97168,15.74069 -9.32831,34.11462 -7.49561,51.66339 1.28955,-9.24844 4.03577,-18.35254 8.66373,-26.46295 4.62796,-8.11035 11.18723,-15.20322 19.25873,-19.89856 1.0903,-0.63425 4.43784,-2.24799 5.37589,-0.53809 0.84479,1.54001 -1.60638,5.02701 -2.34064,6.27515 -8.65869,14.71915 -14.91266,30.8493 -18.43927,47.55826 5.82809,-6.97308 12.01382,-14.18472 20.42523,-17.62546 0.92273,-0.37747 1.90863,-0.71118 2.89789,-0.58762 0.98926,0.12356 1.97137,0.83453 2.09186,1.82419 0.11084,0.91052 -0.49622,1.7359 -1.06982,2.45169 -5.4198,6.76321 -10.8396,13.52643 -16.2594,20.28964 -1.23441,1.54037 -2.51477,3.12012 -4.24423,4.07169 -2.03632,1.12042 -4.45383,1.24158 -6.77609,1.33731 -10.10977,0.41669 -20.21954,0.83337 -30.32932,1.25009 -1.18912,0.049 -2.4332,0.0874 -3.50729,-0.42514 -1.60983,-0.76819 -2.42102,-2.54398 -3.24744,-4.12473 -2.09109,-3.99991 -5.05649,-7.53983 -8.62802,-10.29959 -1.02319,-0.79065 -2.12906,-1.55527 -2.76114,-2.68338 -0.63205,-1.12808 -0.60373,-2.75677 0.44281,-3.5163 0.88391,-0.64148 2.10785,-0.44308 3.15622,-0.13684 2.40588,0.70279 4.68729,1.82947 6.70776,3.31265 -4.67316,-6.94193 -10.1084,-13.37042 -16.17657,-19.13284 -0.9462,-0.8985 -1.94339,-1.83475 -2.35925,-3.07153 -0.41589,-1.23676 -0.005,-2.86005 1.2131,-3.32751 0.68456,-0.26266 1.42559,-0.11081 2.12923,0.15344 z"
   id="path2"
   inkscape:connector-curvature="0"
   style="fill:#648e6b" />
	<path
   d="m 370.3197,525.35919 c -3.061,0.77478 -6.14432,1.46606 -9.28442,1.75928 -7.75586,0.72418 -15.55994,-1.01404 -22.89267,-3.6424 -8.46249,-3.03333 -16.638,-7.37634 -22.81561,-13.9072 -6.17761,-6.53086 -10.1749,-15.46872 -9.40906,-24.42575 0.40179,-4.69934 3.20377,-10.11816 7.92026,-10.12875 4.21198,-0.009 6.96274,4.17902 10.01828,7.07803 10.10739,9.58957 28.52722,7.10687 36.85214,18.27893 0.20285,-6.72961 0.042,-14.36984 -4.93246,-18.9068 -3.26288,-2.97592 -7.84818,-3.85684 -12.06671,-5.16315 -11.02628,-3.41437 -20.85602,-10.57327 -27.48901,-20.01996 -10.18991,-14.51242 -14.42783,-37.79315 -3.21896,-52.88501 1.38535,-1.8653 3.23987,-3.71506 5.56229,-3.78476 2.06537,-0.062 3.9267,1.35211 5.09348,3.05746 1.16678,1.70532 1.80573,3.7059 2.66333,5.58585 7.13437,15.6394 28.3475,21.45755 34.45193,37.52701 2.76563,7.2804 1.85022,15.35336 1.48721,23.1329 -0.36301,7.77954 0.0787,16.20496 4.90564,22.31671 2.25739,-6.17459 4.55087,-12.6163 3.87189,-19.15546 -0.4263,-4.10577 -2.00613,-7.98941 -3.06976,-11.97787 -2.28012,-8.5502 -2.08911,-17.99231 1.89481,-25.8938 4.82608,-9.57178 14.37936,-15.68335 23.49286,-21.32733 6.27875,-3.88843 12.55753,-7.77686 18.83627,-11.66525 2.25446,-1.39621 4.67191,-2.83997 7.32346,-2.80386 4.60999,0.0628 7.9184,4.48071 9.65964,8.74966 5.26514,12.90842 2.84418,28.30283 -4.95746,39.85632 -7.80164,11.55347 -20.48962,19.35248 -34.04153,22.62265 -4.0463,0.97641 -8.47549,1.73306 -11.34158,4.75156 -4.49066,4.72946 -3.00095,12.52628 -5.77011,18.43097 14.28247,-8.08551 28.56497,-16.17102 42.84747,-24.25653 1.67505,-0.94824 3.66174,-1.92194 5.43774,-1.17984 1.39487,0.58286 2.18094,2.05453 2.72836,3.46371 4.10074,10.55621 0.56488,23.00089 -6.7345,31.65933 -7.29938,8.65844 -17.80527,14.02319 -28.53824,17.63611 -5.25375,1.76855 -10.62241,3.17078 -15.98596,4.57141 -0.83184,0.21724 -1.66461,0.43465 -2.49902,0.64583 z m 11.55673,-60.12698 c 13.78061,-3.073 25.60196,-8.22806 34.32053,-19.03516 9.1853,-11.38559 10.52737,-23.95776 5.7417,-37.45163 -1.71793,-4.84402 -2.26328,-4.9697 -6.56363,-2.24741 -8.73489,5.52954 -17.53485,10.95932 -26.18167,16.6232 -3.29825,2.1604 -6.44983,4.63916 -9.3096,7.3511 -3.72379,3.53122 -5.89334,8.03592 -6.80658,13.13419 -1.1102,6.19778 -0.59433,12.27127 1.20154,18.26489 0.22195,0.74072 0.5903,1.43759 1.00952,2.43799 0.42795,-0.67188 0.70181,-0.99219 0.8576,-1.36215 5.97604,-14.19031 16.42706,-24.77203 27.85461,-34.5675 0.23779,-0.20386 0.46286,-0.42923 0.72375,-0.59845 1.44781,-0.939 2.92123,-0.84818 4.00482,0.22989 1.07199,1.06653 1.21622,2.59079 0.22437,3.99445 -0.59686,0.84467 -1.35727,1.5849 -2.10388,2.31079 -3.89465,3.78665 -7.86099,7.50107 -11.70291,11.34015 -5.51586,5.51168 -9.86486,11.84008 -13.27017,19.57565 z m -63.10858,-58.01477 c -0.26334,0.002 -0.52661,0.004 -0.78992,0.006 -0.63266,1.41217 -1.37103,2.78741 -1.87906,4.2431 -1.88995,5.41574 -2.55475,11.01947 -1.79745,16.68896 2.22504,16.65768 10.58502,29.47467 24.707,38.49414 3.51663,2.24603 7.49597,3.46884 12.13327,4.24597 -0.7742,-1.23172 -1.23108,-2.02652 -1.75299,-2.77609 -1.55261,-2.2298 -3.15762,-4.42365 -4.68405,-6.67096 -0.52179,-0.76816 -1.01239,-1.6124 -1.26712,-2.49417 -0.38925,-1.34723 0.17865,-2.4646 1.32776,-3.23871 1.26547,-0.85242 2.74301,-0.76035 3.96176,0.57971 1.75378,1.92825 3.2981,4.04654 4.93967,6.07733 0.69223,0.85629 1.40463,1.69641 2.55936,3.08807 1.1412,-9.96152 -0.22516,-18.42404 -7.13727,-25.22327 -2.07327,-2.03949 -4.42511,-3.84235 -6.82999,-5.48999 -9.23813,-6.32898 -16.57874,-14.30966 -21.68115,-24.31079 -0.55902,-1.09578 -1.20447,-2.14751 -1.80982,-3.21971 z m 53.55948,108.13699 c 11.93237,-1.9118 22.84155,-4.78857 32.39862,-11.51123 3.28171,-2.30838 6.20572,-4.95224 8.21661,-8.47379 3.23154,-5.65915 4.62772,-11.81146 4.77875,-18.27707 0.0152,-0.65247 -0.19305,-1.31015 -0.33459,-2.19751 -0.6236,0.41635 -1.00452,0.59439 -1.28864,0.87164 -5.33646,5.20795 -11.83533,8.48776 -18.62723,11.298 -3.47049,1.43597 -6.95456,2.85043 -10.35739,4.43576 -4.39743,2.0488 -8.29117,4.84705 -11.47885,8.5361 -0.9079,1.05063 -1.62106,2.26953 -2.5849,3.64087 0.67526,0 0.90817,0.0744 1.02414,-0.0106 7.56354,-5.54401 16.39203,-8.69052 24.61673,-12.97885 1.47791,-0.77057 2.80063,-0.41144 3.6098,0.72772 0.85797,1.2077 0.63538,2.82602 -0.69012,3.89221 -0.80301,0.64594 -1.74338,1.14667 -2.67639,1.60101 -3.4718,1.69064 -7.00577,3.25793 -10.44031,5.01987 -3.0596,1.56949 -6.10556,3.19934 -8.99792,5.0517 -3.01343,1.92976 -5.34772,4.57155 -7.16831,8.37416 z m -12.54754,-1.8493 c -1.57565,-6.54349 -4.75632,-11.82269 -11.31598,-14.2565 -3.1203,-1.15771 -6.3624,-2.02719 -9.59982,-2.82132 -8.30054,-2.03604 -15.63297,-5.75262 -21.62106,-11.9534 -0.76489,-0.79208 -1.68378,-1.43542 -2.75488,-2.33557 -1.60681,5.05859 -0.89172,9.47247 1.21121,13.72842 2.4614,4.98154 6.21539,8.89127 10.63113,12.14209 7.64645,5.62921 16.08902,9.66064 25.30289,11.99542 1.92706,0.48828 3.91208,0.96844 6.45541,0.86707 -2.34204,-2.97205 -4.94415,-4.67816 -7.74069,-6.03497 -4.12827,-2.00299 -8.35114,-3.81064 -12.52847,-5.71298 -0.85309,-0.38846 -1.73734,-0.74561 -2.51266,-1.25983 -1.59836,-1.06012 -2.10791,-2.86325 -1.3364,-4.34482 0.7876,-1.51254 2.33365,-1.83157 4.33252,-1.01215 7.43871,3.04953 14.82375,6.19599 21.4768,10.99854 z"
   id="path4"
   inkscape:connector-curvature="0"
   style="fill:#91a345" />
	<path
   d="m 266.51752,492.03604 c -0.0178,0.16104 -0.0316,0.323 -0.0412,0.48593 -0.20102,3.4368 1.5239,6.64432 2.8508,9.82098 2.70471,6.47519 3.88461,13.5816 3.41751,20.58337 -0.1431,2.1452 -1.00693,4.84625 -3.15451,4.94775 -1.29919,0.0614 -2.43472,-0.99573 -2.91589,-2.2041 -0.48114,-1.20837 -0.45996,-2.5481 -0.48059,-3.84857 -0.15094,-9.51996 -2.97598,-18.98334 -8.06851,-27.02811 -7.82082,4.18292 -16.54968,6.84018 -25.41792,6.96774 -8.86824,0.12756 -17.86914,-2.37207 -24.98709,-7.66327 -7.75546,-5.76511 -12.9142,-14.52277 -15.74013,-23.76385 -4.50522,-14.73248 -3.6983,-29.9548 -1.73984,-44.99359 0.70686,-5.42792 2.7914,-11.16086 7.47662,-13.99115 3.1805,-1.92133 7.0545,-2.20297 10.7652,-2.39706 10.52312,-0.55035 21.13657,-0.7883 31.53751,0.90268 10.40092,1.69098 20.6579,5.41736 28.82175,12.07996 8.16388,6.66257 14.04861,16.48364 14.60791,27.00629 0.66522,12.51471 -5.95831,24.17416 -12.9527,34.57318 -1.76756,2.62796 -3.6331,5.39731 -3.97895,8.52182 z M 201.00398,417.0387 c -0.63078,2.44629 -1.3429,4.62183 -1.74103,6.85333 -1.72612,9.67487 -1.9485,19.41278 -0.59358,29.13751 1.29485,9.29318 4.1001,18.10101 9.21284,26.07895 4.75398,7.41821 11.55437,11.70572 20.18625,12.95929 5.12267,0.74387 10.29524,0.745 15.40736,-0.41672 3.68512,-0.83746 7.28256,-1.89847 11.0511,-3.77972 -2.2907,-3.03616 -4.27956,-5.97113 -6.57185,-8.64594 -4.25465,-4.96472 -8.70021,-9.76547 -13.03412,-14.66287 -0.98454,-1.11258 -1.96562,-2.26529 -2.72087,-3.53485 -1.07742,-1.81104 -0.6046,-3.85574 0.91583,-4.9003 1.4062,-0.966 3.18892,-0.68042 4.63171,0.76993 1.37433,1.3815 2.64732,2.87518 4.1058,4.15952 6.93976,6.11105 12.78711,13.14743 17.89137,20.82986 0.34903,0.52524 0.7988,0.98355 1.51218,1.8501 3.79324,-7.36121 8.37808,-13.89117 10.66208,-21.52307 2.29019,-7.65256 1.94705,-15.27484 -2.08975,-22.34412 -5.64667,-9.88858 -13.76056,-16.84961 -24.98885,-19.63272 -12.77342,-3.16605 -25.75951,-4.43875 -38.9164,-3.7558 -1.47501,0.0766 -2.94099,0.32819 -4.92007,0.55762 z"
   id="path6"
   inkscape:connector-curvature="0"
   style="fill:#648e6b" />
	<path
   d="m 519.07904,503.69012 c -0.10114,-1.08472 -0.25641,-2.2681 -1.04736,-3.01724 -0.86633,-0.8205 -2.1936,-0.84308 -3.38635,-0.81665 -23.81433,0.5275 -47.62866,1.05499 -71.44302,1.58246 -2.55148,0.0565 -5.21667,0.14212 -7.45322,1.37167 -4.81592,2.64755 -3.36276,10.81506 -3.45145,15.36078 -0.14417,7.39465 -0.22208,14.79242 -0.0634,22.1875 0.30804,14.3584 1.4678,28.75146 4.60376,42.79205 2.65479,11.8858 7.8678,24.76062 19.10004,29.46759 -2.61777,0.91016 -2.47659,5.06769 -0.33582,6.82782 2.14077,1.76013 5.17111,1.79517 7.94214,1.74481 10.832,-0.19678 21.66382,-0.39355 32.49564,-0.59033 1.61771,-0.0294 3.29797,-0.0736 4.74341,-0.80054 1.44525,-0.72699 2.57654,-2.35052 2.1936,-3.92242 -0.52155,-2.14203 -3.1994,-2.79047 -5.39032,-3.03522 7.08173,-3.19922 12.17545,-9.81683 15.10669,-17.01373 2.93121,-7.1969 3.94458,-15.01031 4.78796,-22.73529 2.51599,-23.04345 3.75159,-46.32312 1.59772,-69.40326 z"
   id="path8"
   inkscape:connector-curvature="0"
   style="fill:#c7b09d" />
	<path
   d="m 412.89133,521.4751 c -0.96854,-0.5611 -2.15305,-0.54675 -3.27197,-0.51654 -27.76431,0.74969 -55.52881,1.49945 -83.29327,2.24915 -1.65131,0.0446 -3.37161,0.10669 -4.82715,0.888 -3.45007,1.85211 -3.65396,11.98737 -3.2085,15.34174 0.4895,3.68512 2.72943,7.38831 6.28351,8.47852 0.96475,0.29602 2.08209,0.45062 2.76636,1.14917 0.0729,0.0744 0.14084,0.15503 0.20325,0.24268 0.39969,0.56158 0.46356,1.28735 0.51627,1.97461 1.35229,17.6217 4.12671,35.13409 8.2872,52.31091 0.78375,3.2356 1.84192,6.77759 4.6795,8.51862 2.09427,1.28491 4.7038,1.28442 7.15988,1.2182 13.46436,-0.3634 26.90726,-1.52319 40.23474,-3.47137 2.33383,-0.34113 4.81158,-0.77472 6.54883,-2.36987 2.1987,-2.01892 2.58957,-5.28839 2.83191,-8.26355 1.31146,-16.09772 2.32382,-32.21973 3.03656,-48.35504 0.0333,-0.75214 0.076,-1.53979 0.46289,-2.18567 1.01907,-1.70166 3.49753,-1.37878 5.47034,-1.58276 4.18427,-0.43268 7.38824,-4.23773 8.47354,-8.30182 1.08545,-4.06409 0.50003,-8.36414 -0.0924,-12.52875 -0.258,-1.81515 -0.67518,-3.87716 -2.26145,-4.79623 z"
   id="path10"
   inkscape:connector-curvature="0"
   style="fill:#a58c7a" />
	<path
   d="m 304.58466,539.67444 c -2.29422,-11.93805 -4.70624,-23.85413 -7.15878,-35.76077 -0.76184,-3.6983 -1.68701,-4.23276 -5.47327,-4.19177 -4.13049,0.0447 -8.26166,0.0102 -12.53754,0.0102 -10.28702,0.87271 -20.68744,1.77203 -31.09224,2.62088 -1.72943,0.14114 -3.10957,0.73853 -4.01524,2.2468 -1.05862,1.76321 -2.34555,3.44202 -3.08484,5.33282 -1.33353,3.4101 -2.54239,6.89813 -3.43428,10.44635 -3.02695,12.04193 -5.08176,24.27252 -5.96675,36.6521 -0.87068,12.18109 -0.46083,24.33734 2.5954,36.25323 1.90625,7.43243 5.05333,14.27875 10.37537,19.94873 9.76915,10.40765 22.10529,14.04065 35.92804,12.97729 11.29971,-0.86938 19.11771,-7.1203 23.93683,-17.20477 1.13214,-2.36896 2.03378,-4.87939 2.75995,-7.40564 3.42383,-11.91095 3.54633,-24.03076 1.72522,-36.17377 -1.29249,-8.61822 -2.91292,-17.19128 -4.55787,-25.75164 z"
   id="path12"
   inkscape:connector-curvature="0"
   style="fill:#c7b09d" />
	
	
	
	
	
</g>
</svg>