<?xml version="1.0" encoding="UTF-8" standalone="no"?>
<svg
   xmlns:dc="http://purl.org/dc/elements/1.1/"
   xmlns:cc="http://creativecommons.org/ns#"
   xmlns:rdf="http://www.w3.org/1999/02/22-rdf-syntax-ns#"
   xmlns:svg="http://www.w3.org/2000/svg"
   xmlns="http://www.w3.org/2000/svg"
   xmlns:sodipodi="http://sodipodi.sourceforge.net/DTD/sodipodi-0.dtd"
   xmlns:inkscape="http://www.inkscape.org/namespaces/inkscape"
   viewBox="0 0 18 25.99404"
   version="1.1"
   id="svg4"
   sodipodi:docname="water.svg"
   width="18"
   height="25.99404"
   inkscape:version="0.92.4 (5da689c313, 2019-01-14)">
  <metadata
     id="metadata10">
    <rdf:RDF>
      <cc:Work
         rdf:about="">
        <dc:format>image/svg+xml</dc:format>
        <dc:type
           rdf:resource="http://purl.org/dc/dcmitype/StillImage" />
        <dc:title />
      </cc:Work>
    </rdf:RDF>
  </metadata>
  <defs
     id="defs8" />
  <sodipodi:namedview
     pagecolor="#ffffff"
     bordercolor="#666666"
     borderopacity="1"
     objecttolerance="10"
     gridtolerance="10"
     guidetolerance="10"
     inkscape:pageopacity="0"
     inkscape:pageshadow="2"
     inkscape:window-width="1920"
     inkscape:window-height="1017"
     id="namedview6"
     showgrid="false"
     inkscape:zoom="29.5"
     inkscape:cx="3.6971236"
     inkscape:cy="13.416543"
     inkscape:window-x="-8"
     inkscape:window-y="-8"
     inkscape:window-maximized="1"
     inkscape:current-layer="svg4"
     fit-margin-top="0"
     fit-margin-left="0"
     fit-margin-right="0"
     fit-margin-bottom="0" />
  <path
     style="fill:#5fbcd3"
     d="m 9,9.7240395 c 0,-2 -3,-8 -3.61,-9.18000002 a 1,1 0 0 0 -1.78,0 C 3,1.7340395 0,7.7740395 0,9.7240395 A 4.4,4.4 0 0 0 4.5,13.994039 4.4,4.4 0 0 0 9,9.7240395 Z"
     id="path4530" />
  <path
     style="fill:#2a6699;fill-opacity:1"
     d="m 14.9,7.5640395 a 1,1 0 0 0 -1.8,0 c -0.52,1.1 -3.1,6.6399995 -3.1,8.4299995 a 4,4 0 0 0 8,0 c 0,-1.79 -2.58,-7.3299995 -3.1,-8.4299995 z"
     id="path4528" />
  <path
     style="fill:#5fbcd3"
     d="m 7,15.994039 a 1,1 0 0 0 -0.92,0.6 c -0.49,1.13 -2.08,4.91 -2.08,6.22 a 3.1,3.1 0 0 0 3,3.18 3.1,3.1 0 0 0 3,-3.18 c 0,-1.31 -1.59,-5.09 -2.08,-6.22 a 1,1 0 0 0 -0.92,-0.6 z"
     id="path2" />
</svg>
